<svg width="63" height="64" viewBox="0 0 63 64" fill="none" xmlns="http://www.w3.org/2000/svg">
<circle cx="28.2363" cy="26.4715" r="26.4715" fill="#FFCD3C"/>
<path d="M5.86719 38.4623H16.4132C17.3452 38.4623 18.2391 38.8262 18.8981 39.4741C19.5571 40.1219 19.9274 41.0006 19.9274 41.9169V59.1948C19.9274 60.111 19.5571 60.9896 18.8981 61.6375C18.2391 62.2853 17.3452 62.6493 16.4132 62.6493H5.86719C3.9258 62.6493 2.35303 61.1032 2.35303 59.1948V41.9169C2.35303 41.0006 2.72327 40.1219 3.38231 39.4741C4.04134 38.8262 4.93518 38.4623 5.86719 38.4623ZM5.86719 38.4623H16.4167V34.6177C16.4165 34.4418 16.381 34.2675 16.3122 34.1051C16.2434 33.9426 16.1427 33.7951 16.0159 33.6709C15.8891 33.5466 15.7385 33.4483 15.573 33.3812C15.4074 33.3142 15.2301 33.28 15.0511 33.2804H7.22933C6.86837 33.2804 6.52217 33.4213 6.26677 33.6721C6.01137 33.9228 5.86766 34.2629 5.86719 34.6177V38.4623ZM23.438 27.279L22.6534 25.7346C22.3622 25.1609 21.914 24.6783 21.3594 24.3409C20.8047 24.0035 20.1654 23.8246 19.5131 23.8245H4.11011M11.1402 47.1004V54.0112M7.62603 50.5567H14.6544M11.1402 23.8245V33.2804M37.5017 47.9649C37.5017 49.5684 36.8537 51.1064 35.7002 52.2403C34.5468 53.3742 32.9823 54.0112 31.3511 54.0112C29.7198 54.0112 28.1554 53.3742 27.0018 52.2403C25.8484 51.1064 25.2004 49.5684 25.2004 47.9649C25.2004 43.4301 31.344 35.8705 31.344 35.8705C31.344 35.8705 37.5017 43.4301 37.5017 47.9649Z" stroke="black" stroke-width="1.9527" stroke-linecap="round" stroke-linejoin="round"/>
</svg>
