<svg width="63" height="63" viewBox="0 0 63 63" fill="none" xmlns="http://www.w3.org/2000/svg">
<circle cx="28.2361" cy="26.4715" r="26.4715" fill="#FFCD3C"/>
<g clip-path="url(#clip0_20_7135)">
<path d="M14.7344 44.0457L18.7786 48.09L27.676 39.1926" stroke="black" stroke-width="1.6177" stroke-linecap="square"/>
<path d="M21.2051 59.4136C23.2056 59.4136 24.9244 58.2039 25.6682 56.4779C25.9282 55.8677 26.7948 55.5066 27.4123 55.7521C29.16 56.449 31.2291 56.0879 32.6446 54.6761C34.0564 53.2606 34.4175 51.1915 33.7206 49.4438C33.4751 48.8263 33.8362 47.9597 34.4464 47.6997C36.1724 46.9559 37.3821 45.2371 37.3821 43.2366C37.3821 41.2361 36.1724 39.5173 34.4464 38.7771C33.8362 38.5135 33.4751 37.6469 33.7206 37.0294C34.4175 35.2817 34.0564 33.2126 32.6446 31.7971C31.2291 30.3852 29.16 30.0242 27.4123 30.7211C26.7948 30.9666 25.9282 30.6055 25.6682 29.9953C24.9244 28.2692 23.2056 27.0596 21.2051 27.0596C19.2046 27.0596 17.4858 28.2692 16.7456 29.9953C16.482 30.6055 15.6154 30.9666 14.9979 30.7211C13.2502 30.0242 11.1811 30.3852 9.76563 31.7971C8.35375 33.2126 7.99266 35.2817 8.68957 37.0294C8.93512 37.6469 8.57402 38.5135 7.96377 38.7771C6.23774 39.5173 5.02808 41.2361 5.02808 43.2366C5.02808 45.2371 6.23774 46.9559 7.96377 47.6997C8.57402 47.9597 8.93512 48.8263 8.68957 49.4438C7.99266 51.1915 8.35375 53.2606 9.76563 54.6761C11.1811 56.0879 13.2502 56.449 14.9979 55.7521C15.6154 55.5066 16.482 55.8677 16.7456 56.4779C17.4858 58.2039 19.2046 59.4136 21.2051 59.4136Z" stroke="black" stroke-width="1.6177" stroke-linecap="square"/>
</g>
<defs>
<clipPath id="clip0_20_7135">
<rect width="38.8248" height="38.8248" fill="white" transform="translate(1.79272 23.8245)"/>
</clipPath>
</defs>
</svg>
