<svg width="63" height="63" viewBox="0 0 63 63" fill="none" xmlns="http://www.w3.org/2000/svg">
<circle cx="28.2363" cy="26.4715" r="26.4715" fill="#FFCD3C"/>
<g clip-path="url(#clip0_20_7124)">
<g clip-path="url(#clip1_20_7124)">
<path d="M36.2479 40.9188C36.2479 50.147 28.7233 57.6275 19.4406 57.6275C10.1579 57.6275 2.6333 50.147 2.6333 40.9188C2.6333 31.6906 10.1579 24.2102 19.4406 24.2102C28.7233 24.2102 36.2479 31.6906 36.2479 40.9188Z" stroke="black" stroke-width="1.68073" stroke-linecap="round" stroke-linejoin="round"/>
<path d="M31.0678 38.267C29.4392 38.9754 26.9786 39.612 24.7516 38.7749C21.5649 37.5769 19.9279 37.5769 19.4405 37.5769C18.9531 37.5769 17.3161 37.5769 14.1294 38.7749C11.9024 39.612 9.44018 38.9754 7.81323 38.2653M31.2056 43.0173C27.6004 43.699 22.1431 45.729 22.0019 52.6163M16.8791 52.6163C16.7379 45.729 11.2822 43.699 7.67542 43.0173M19.4539 42.5895H19.4388" stroke="black" stroke-width="1.68073" stroke-linecap="round" stroke-linejoin="round"/>
</g>
</g>
<defs>
<clipPath id="clip0_20_7124">
<rect width="35.2953" height="35.2953" fill="white" transform="translate(1.79297 23.2361)"/>
</clipPath>
<clipPath id="clip1_20_7124">
<rect width="35.2953" height="35.2953" fill="white" transform="translate(1.79297 23.2361)"/>
</clipPath>
</defs>
</svg>
